#!OML:ASF I:\golf\golf\golf 2\Subject 1\2002-09-07\Subject1.ASF
:FULLY-SPECIFIED
:DEGREES
420
root -8.72198 17.9734 4.93152 -59.517 86.8127 -76.9501
lowerback 7.31149 1.30133 -0.214478
upperback 8.8823 2.02081 5.05182
thorax 4.98727 1.01087 5.37106
lowerneck -11.2473 -0.679083 3.34815
upperneck 41.1001 3.43053 -7.07394
head 17.0287 1.65724 -3.02857
rclavicle 3.18055e-014 3.18055e-014
rhumerus -16.5399 43.0365 -93.239
rradius 63.6465
rwrist -57.4684
rhand -34.9 -20.22
rfingers 7.12502
rthumb -8.04821 -50.0467
lclavicle 3.18055e-014 3.18055e-014
lhumerus -17.7419 -48.5852 104.9
lradius 65.9287
lwrist 65.6619
lhand -12.8862 66.0284
lfingers 7.12502
lthumb -166.797 84.4096
rfemur -35.5501 -4.00397 18
rtibia 29.2062
rfoot -6.24548 -4.22835
rtoes 4.47806
lfemur -35.543 3.87395 -15.0664
ltibia 28.9224
lfoot -8.95543 -9.55773
ltoes 1.50531
421
root -8.71896 17.9923 4.93138 -62.7291 86.9002 -80.1981
lowerback 7.20533 1.30643 -0.344174
upperback 8.8908 2.02079 5.18538
thorax 5.04955 0.9992 5.59178
lowerneck -11.2674 -0.727466 3.18893
upperneck 41.1088 3.42461 -7.10318
head 17.0375 1.62962 -3.01297
rclavicle -7.95139e-016 1.51076e-014
rhumerus -16.5375 43.1499 -93.1018
rradius 63.745
rwrist -57.6369
rhand -34.9451 -20.3602
rfingers 7.12502
rthumb -8.0918 -50.1853
lclavicle -7.95139e-016 1.51076e-014
lhumerus -17.6844 -48.4374 105.026
lradius 65.9104
lwrist 65.6887
lhand -13.4091 66.1754
lfingers 7.12502
lthumb -167.301 84.2307
rfemur -35.5178 -4.0488 17.9518
rtibia 29.2055
rfoot -6.28601 -4.40992
rtoes 4.47378
lfemur -35.2259 3.50172 -14.8631
ltibia 28.7409
lfoot -8.64315 -9.63696
ltoes 6.20785
422
root -8.7148 17.9645 4.93305 -67.3712 86.9686 -84.8378
lowerback 7.16675 1.32954 -0.428506
upperback 8.89292 2.04949 5.34239
thorax 5.06494 1.00542 5.80845
lowerneck -11.2529 -0.791091 3.11688
upperneck 41.1121 3.42268 -7.24399
head 17.039 1.60611 -3.06299
rclavicle 2.38542e-015 -1.51076e-014
rhumerus -16.623 43.2387 -92.9267
rradius 63.9066
rwrist -57.7691
rhand -34.9448 -20.5816
rfingers 7.12502
rthumb -8.09147 -50.4067
lclavicle 2.38542e-015 -1.51076e-014
lhumerus -17.6931 -48.441 105.245
lradius 65.9086
lwrist 65.7956
lhand -13.5778 66.122
lfingers 7.12502
lthumb -167.464 84.2741
rfemur -35.5002 -4.01184 17.8672
rtibia 29.2577
rfoot -6.3327 -4.68436
rtoes 4.40791
lfemur -35.6034 4.36022 -15.6099
ltibia 28.4991
lfoot -9.00146 -9.74842
ltoes -4.01358
423
root -8.71171 17.9615 4.93453 -71.2052 86.921 -88.6691
lowerback 7.12448 1.35355 -0.523285
upperback 8.91769 2.08005 5.57065
thorax 5.10473 1.01013 6.10935
lowerneck -11.204 -0.802794 3.02233
upperneck 41.0239 3.51256 -7.44284
head 16.9906 1.6072 -3.11606
rclavicle 5.56597e-015 3.18055e-014
rhumerus -16.6342 43.4866 -92.6782
rradius 63.9289
rwrist -57.7709
rhand -34.8969 -20.6375
rfingers 7.12502
rthumb -8.04528 -50.4643
lclavicle 5.56597e-015 3.18055e-014
lhumerus -17.5917 -48.2991 105.402
lradius 65.9089
lwrist 65.8554
lhand -13.5386 65.9185
lfingers 7.12502
lthumb -167.426 84.4798
rfemur -35.4368 -3.91825 17.8824
rtibia 29.2453
rfoot -6.4125 -4.91224
rtoes 5.00291
lfemur -35.6202 4.60155 -15.7756
ltibia 28.2516
lfoot -9.12472 -9.74933
ltoes -7.73508
424
root -8.70832 17.9751 4.9331 -75.9726 86.9101 -93.448
lowerback 7.06747 1.3398 -0.473419
upperback 8.92657 2.06422 5.66313
thorax 5.14734 1.00297 6.18363
lowerneck -11.1613 -0.792611 2.96892
upperneck 40.9582 3.53994 -7.44461
head 16.9447 1.61169 -3.09839
rclavicle 3.10104e-014 8.26944e-014
rhumerus -16.6175 43.5976 -92.6261
rradius 63.8979
rwrist -57.6718
rhand -34.8192 -20.6652
rfingers 7.12502
rthumb -7.97024 -50.4949
lclavicle 3.10104e-014 8.26944e-014
lhumerus -17.494 -48.2782 105.359
lradius 65.9333
lwrist 65.8594
lhand -13.3532 65.7451
lfingers 7.12502
lthumb -167.247 84.6644
rfemur -35.3812 -4.03773 17.9065
rtibia 29.2474
rfoot -6.51482 -5.02555
rtoes 6.02449
lfemur -35.4009 4.20818 -15.577
ltibia 27.9179
lfoot -8.93411 -9.7911
ltoes -5.71885
425
root -8.7053 17.9874 4.93041 -82.0561 87.0491 -99.5307
lowerback 7.05293 1.34998 -0.41206
upperback 8.89931 2.08008 5.59595
thorax 5.12724 1.01685 6.07494
lowerneck -11.1659 -0.825604 3.03902
upperneck 40.9809 3.4269 -7.3186
head 16.9442 1.59476 -3.07272
rclavicle -7.95139e-015 -1.43125e-014
rhumerus -16.6998 43.4067 -92.7614
rradius 63.9556
rwrist -57.5909
rhand -34.6753 -20.6826
rfingers 7.12502
rthumb -7.8314 -50.5175
lclavicle -7.95139e-015 -1.43125e-014
lhumerus -17.5444 -48.5363 105.283
lradius 65.9686
lwrist 65.8313
lhand -13.2905 66.0096
lfingers 7.12502
lthumb -167.187 84.4036
rfemur -35.2228 -4.27607 17.757
rtibia 29.0692
rfoot -6.45673 -5.15007
rtoes 5.809
lfemur -35.2833 3.52638 -15.4013
ltibia 27.7745
lfoot -8.6123 -9.99599
ltoes -1.32115
426
root -8.70236 17.9982 4.93093 -85.437 87.1539 -102.884
lowerback 7.07453 1.43551 -0.459741
upperback 8.87926 2.19309 5.56881
thorax 5.08036 1.07236 6.06706
lowerneck -11.2351 -0.896687 3.10362
upperneck 41.0531 3.29531 -7.26313
head 16.9889 1.56172 -3.08381
rclavicle -1.90833e-014 -3.49861e-014
rhumerus -16.8254 43.2274 -92.8159
rradius 64.0787
rwrist -57.5749
rhand -34.5458 -20.7588
rfingers 7.12502
rthumb -7.70637 -50.5984
lclavicle -1.90833e-014 -3.49861e-014
lhumerus -17.6044 -48.7785 105.285
lradius 65.9866
lwrist 65.8033
lhand -13.6127 66.4896
lfingers 7.12502
lthumb -167.497 83.9045
rfemur -35.084 -4.30591 17.6034
rtibia 28.9546
rfoot -6.38234 -5.33283
rtoes 4.99967
lfemur -35.0826 3.14486 -15.3141
ltibia 27.6151
lfoot -8.36233 -10.1637
ltoes 1.78559
427
root -8.70088 18.0031 4.93078 -89.0396 87.1432 -106.446
lowerback 7.11488 1.49114 -0.395223
upperback 8.87847 2.27226 5.57739
thorax 5.04981 1.11709 6.0349
lowerneck -11.3632 -0.952411 3.13029
upperneck 41.133 3.19724 -7.21428
head 17.0567 1.53378 -3.08653
rclavicle -4.77083e-015 -5.56597e-015
rhumerus -16.8879 43.1266 -92.8249
rradius 64.1771
rwrist -57.5009
rhand -34.5644 -20.7679
rfingers 7.12502
rthumb -7.72438 -50.6069
lclavicle -4.77083e-015 -5.56597e-015
lhumerus -17.5636 -48.9262 105.223
lradius 65.9789
lwrist 65.7016
lhand -13.6387 66.5773
lfingers 7.12502
lthumb -167.523 83.8152
rfemur -35.0046 -4.2263 17.5245
rtibia 28.9977
rfoot -6.41812 -5.61018
rtoes 4.90603
lfemur -34.861 3.01582 -15.285
ltibia 27.3677
lfoot -8.24062 -10.2675
ltoes 2.45702
428
root -8.70013 17.9901 4.92782 -94.3548 87.162 -111.777
lowerback 7.09793 1.5104 -0.302262
upperback 8.87681 2.30209 5.55375
thorax 5.05761 1.13849 5.95607
lowerneck -11.5115 -0.983006 3.12301
upperneck 41.178 3.10991 -7.10163
head 17.1092 1.51041 -3.05089
rclavicle -2.94201e-014 -4.05521e-014
rhumerus -16.8408 42.9771 -92.8372
rradius 64.1276
rwrist -57.208
rhand -34.4833 -20.7486
rfingers 7.12502
rthumb -7.64605 -50.5904
lclavicle -2.94201e-014 -4.05521e-014
lhumerus -17.4926 -49.1116 105.122
lradius 66.0036
lwrist 65.6083
lhand -13.1242 66.3017
lfingers 7.12502
lthumb -167.027 84.1217
rfemur -35.0294 -4.27551 17.3839
rtibia 29.1072
rfoot -6.51374 -5.80512
rtoes 4.89879
lfemur -34.9674 3.24918 -15.6302
ltibia 27.1437
lfoot -8.33813 -10.5307
ltoes -0.705416
